# xmcd
#
# Track frame offsets: 
#        150
#        25247
#        50072
#        70211
#        82423
#        103998
#        114205
#        125467
#        141850
#        152092
#        163664
#        172916
#        183834
#        200009
#        215227
#        228813
#        245814
#        258466
#        275729
#        285998
#        299995
#        312951
#        334434
#        347813
#
# Disc length: 4770 seconds
#
# Revision: 1
# Processed by: cddbd v1.5.2PL0 Copyright (c) Steve Scherf et al.
# Submitted via: ExactAudioCopyFreeDBPlugin 1.0
#
DISCID=8712a018
DTITLE=Korner, Alexis - Every Day I Have The Blues: The Sixties Anthol
DTITLE=ogy (2)
DYEAR=2018
DGENRE=Blues
TTITLE0=Little Bitty Gal Blues LIVE
TTITLE1=Hoochie Coochie Man LIVE
TTITLE2=Kansas City LIVE
TTITLE3=Woke Up This Morning
TTITLE4=Stormy Monday
TTITLE5=Cabbage Greens
TTITLE6=Chicken Shack
TTITLE7=Haitian Fight Song
TTITLE8=I Need Your Loving
TTITLE9=Please Please Please
TTITLE10=Little Baby
TTITLE11=Roberta
TTITLE12=I Got A Woman BBC SESSION
TTITLE13=Oh Lord, Don't Let Them Drop That Atomic Bomb On Me BBC SESSI
TTITLE13=ON
TTITLE14=Long Black Train
TTITLE15=Rock Me
TTITLE16=I'm So Glad
TTITLE17=Wednesday Night Prayer Meeting
TTITLE18=Ooo-Wee Baby
TTITLE19=River's Invitation
TTITLE20=Money Honey
TTITLE21=Louise
TTITLE22=Floating
TTITLE23=Rosie
EXTD=
EXTT0=
EXTT1=
EXTT2=
EXTT3=
EXTT4=
EXTT5=
EXTT6=
EXTT7=
EXTT8=
EXTT9=
EXTT10=
EXTT11=
EXTT12=
EXTT13=
EXTT14=
EXTT15=
EXTT16=
EXTT17=
EXTT18=
EXTT19=
EXTT20=
EXTT21=
EXTT22=
EXTT23=
PLAYORDER=
